<?xml version="1.0" standalone="no"?>
<!DOCTYPE svg PUBLIC "-//W3C//DTD SVG 20010904//EN"
 "http://www.w3.org/TR/2001/REC-SVG-20010904/DTD/svg10.dtd">
<svg version="1.0" xmlns="http://www.w3.org/2000/svg"
 width="546.000000pt" height="666.000000pt" viewBox="0 0 546.000000 666.000000"
 preserveAspectRatio="xMidYMid meet">
<metadata>
Created by potrace 1.13, written by Peter Selinger 2001-2015
</metadata>
<g transform="translate(0.000000,666.000000) scale(0.100000,-0.100000)"
fill="#000000" stroke="none">
<path d="M810 4460 c0 -25 4 -30 24 -30 34 0 70 -33 95 -84 32 -70 711 -1882
733 -1958 24 -83 15 -108 -37 -108 -32 0 -35 -2 -35 -30 l0 -30 308 2 307 3 0
25 c0 19 -6 26 -31 30 -44 10 -54 18 -54 47 0 15 90 279 201 587 110 309 244
683 296 831 53 149 99 273 103 278 5 5 454 -1198 614 -1645 25 -69 17 -90 -35
-98 -28 -4 -34 -9 -34 -30 l0 -25 285 0 285 0 0 25 c0 21 -6 26 -34 30 -46 7
-58 29 -44 77 23 79 723 1953 747 2002 27 52 50 71 85 71 17 0 21 6 21 30 l0
30 -270 0 -270 0 0 -30 c0 -26 4 -30 28 -30 34 0 62 -27 62 -60 0 -13 -14 -62
-31 -109 -190 -518 -560 -1516 -564 -1519 -3 -3 -6 -3 -8 -1 -2 2 -137 370
-301 818 -204 558 -296 822 -292 837 4 16 17 26 39 32 25 6 33 14 35 35 l3 27
-300 0 -301 0 0 -30 c0 -22 5 -30 18 -30 25 0 42 -20 42 -50 1 -28 -580 -1690
-590 -1690 -3 0 -125 318 -269 708 -145 389 -285 763 -312 831 -27 68 -49 134
-49 146 0 29 27 52 65 57 24 2 30 8 30 28 l0 25 -282 3 -283 2 0 -30z"/>
</g>
</svg>
