<?xml version="1.0" standalone="no"?>
<!DOCTYPE svg PUBLIC "-//W3C//DTD SVG 20010904//EN"
 "http://www.w3.org/TR/2001/REC-SVG-20010904/DTD/svg10.dtd">
<svg version="1.0" xmlns="http://www.w3.org/2000/svg"
 width="546.000000pt" height="666.000000pt" viewBox="0 0 546.000000 666.000000"
 preserveAspectRatio="xMidYMid meet">
<metadata>
Created by potrace 1.13, written by Peter Selinger 2001-2015
</metadata>
<g transform="translate(0.000000,666.000000) scale(0.100000,-0.100000)"
fill="#000000" stroke="none">
<path d="M2460 5873 c-19 -32 -69 -110 -111 -173 -72 -109 -108 -166 -277
-438 -126 -202 -185 -299 -247 -402 -61 -101 -375 -627 -411 -687 -10 -18 -41
-70 -68 -115 -105 -178 -245 -416 -280 -478 -21 -36 -60 -103 -88 -150 -27
-47 -97 -166 -155 -265 -219 -375 -250 -428 -326 -555 -42 -72 -77 -133 -77
-135 0 -3 151 -5 335 -5 l334 0 50 60 c27 33 67 90 87 127 84 153 188 323 227
371 l42 51 468 4 467 5 0 -1063 c0 -584 3 -1117 7 -1183 l6 -122 299 0 298 0
0 1185 0 1185 494 0 494 0 56 -69 c31 -39 56 -72 56 -75 0 -3 26 -49 59 -103
32 -54 73 -127 91 -163 18 -36 53 -95 78 -132 l45 -68 333 0 c261 0 334 3 334
13 0 6 -52 104 -116 217 -64 113 -137 243 -164 290 -116 207 -185 327 -315
550 -15 25 -61 104 -102 175 -68 116 -195 330 -339 573 -27 45 -78 132 -114
192 -36 60 -110 185 -164 277 -55 93 -121 202 -146 243 -26 41 -73 119 -106
174 -32 54 -76 126 -96 160 -20 33 -47 79 -59 101 -12 22 -50 85 -83 140 -34
55 -95 155 -135 223 l-72 122 -287 0 -288 0 -34 -57z m397 -785 c106 -157 220
-345 408 -673 173 -301 338 -576 381 -636 19 -26 34 -51 34 -57 0 -6 -30 -13
-67 -16 -123 -10 -1753 -19 -1753 -9 0 23 160 300 461 798 168 278 369 618
403 680 20 36 27 45 36 45 5 0 49 -60 97 -132z"/>
</g>
</svg>
