<?xml version="1.0" standalone="no"?>
<!DOCTYPE svg PUBLIC "-//W3C//DTD SVG 20010904//EN"
 "http://www.w3.org/TR/2001/REC-SVG-20010904/DTD/svg10.dtd">
<svg version="1.0" xmlns="http://www.w3.org/2000/svg"
 width="546.000000pt" height="666.000000pt" viewBox="0 0 546.000000 666.000000"
 preserveAspectRatio="xMidYMid meet">
<metadata>
Created by potrace 1.13, written by Peter Selinger 2001-2015
</metadata>
<g transform="translate(0.000000,666.000000) scale(0.100000,-0.100000)"
fill="#000000" stroke="none">
<path d="M1736 5447 c-257 -579 -468 -1056 -469 -1060 -1 -5 74 -53 168 -107
131 -77 173 -97 181 -87 22 23 1344 1836 1349 1849 4 12 -110 80 -716 430
l-46 27 -467 -1052z"/>
<path d="M2865 4849 c-605 -429 -1106 -784 -1114 -788 -12 -7 5 -43 83 -180
53 -94 100 -171 104 -171 6 0 2470 1138 2480 1145 4 3 -442 775 -448 774 -3 0
-500 -351 -1105 -780z"/>
<path d="M722 3970 c-121 -32 -206 -83 -302 -179 -86 -87 -125 -149 -165 -266
-26 -74 -32 -262 -11 -345 57 -228 230 -412 451 -480 159 -48 327 -34 485 42
68 33 100 57 170 127 139 139 194 275 193 471 -1 84 -6 121 -27 185 -66 205
-215 359 -416 429 -114 39 -268 46 -378 16z"/>
<path d="M3655 3654 c-907 -67 -1656 -123 -1662 -123 -18 -1 -19 -401 -1 -401
22 0 3272 -239 3311 -244 l37 -4 0 449 c0 421 -1 449 -17 448 -10 -1 -760 -57
-1668 -125z"/>
<path d="M1837 2787 c-79 -138 -95 -173 -85 -183 7 -7 510 -364 1117 -793
l1104 -780 223 386 c123 213 223 388 221 389 -2 2 -2277 1057 -2423 1123 l-60
28 -97 -170z"/>
<path d="M1435 2385 c-88 -52 -161 -99 -163 -104 -4 -11 913 -2088 928 -2105
8 -8 769 422 770 436 0 11 -1355 1861 -1365 1864 -6 1 -82 -40 -170 -91z"/>
</g>
</svg>
