<?xml version="1.0" standalone="no"?>
<!DOCTYPE svg PUBLIC "-//W3C//DTD SVG 20010904//EN"
 "http://www.w3.org/TR/2001/REC-SVG-20010904/DTD/svg10.dtd">
<svg version="1.0" xmlns="http://www.w3.org/2000/svg"
 width="546.000000pt" height="666.000000pt" viewBox="0 0 546.000000 666.000000"
 preserveAspectRatio="xMidYMid meet">
<metadata>
Created by potrace 1.13, written by Peter Selinger 2001-2015
</metadata>
<g transform="translate(0.000000,666.000000) scale(0.100000,-0.100000)"
fill="#000000" stroke="none">
<path d="M1170 5040 l0 -720 253 0 c140 0 256 -2 259 -6 3 -3 0 -33 -8 -67
-23 -103 -455 -2057 -610 -2757 -79 -360 -154 -695 -165 -745 -66 -293 -99
-446 -99 -460 0 -13 32 -15 258 -15 l259 0 38 179 38 180 450 548 c247 301
537 655 645 786 156 190 197 236 207 225 7 -7 217 -263 467 -568 250 -305 530
-647 622 -760 93 -113 175 -214 182 -225 9 -15 84 -335 84 -361 0 -2 117 -4
260 -4 150 0 260 4 260 9 0 5 -20 99 -45 208 -24 109 -110 495 -190 858 -80
363 -188 851 -240 1085 -369 1669 -404 1828 -407 1860 l-3 25 255 5 255 5 3
718 2 717 -285 0 -285 0 0 -460 0 -460 -945 0 -945 0 0 190 c0 120 -4 190 -10
190 -6 0 -10 97 -10 270 l0 270 -275 0 -275 0 0 -720z m1990 -726 c0 -3 32
-148 70 -323 39 -174 70 -324 70 -331 -1 -19 -602 -755 -616 -755 -6 0 -147
167 -313 370 -301 368 -302 370 -297 410 4 31 97 465 131 613 l5 22 475 0
c261 0 475 -3 475 -6z m-976 -1502 l217 -263 -142 -172 c-78 -95 -255 -310
-393 -479 -138 -169 -252 -305 -254 -303 -3 3 310 1441 325 1489 6 23 -17 49
247 -272z m1337 -137 c45 -203 116 -530 160 -724 43 -195 77 -356 75 -358 -2
-2 -133 155 -292 349 -462 562 -494 603 -491 610 1 4 103 130 227 280 219 265
225 272 232 243 5 -17 44 -196 89 -400z"/>
</g>
</svg>
