<?xml version="1.0" standalone="no"?>
<!DOCTYPE svg PUBLIC "-//W3C//DTD SVG 20010904//EN"
 "http://www.w3.org/TR/2001/REC-SVG-20010904/DTD/svg10.dtd">
<svg version="1.0" xmlns="http://www.w3.org/2000/svg"
 width="546.000000pt" height="666.000000pt" viewBox="0 0 546.000000 666.000000"
 preserveAspectRatio="xMidYMid meet">
<metadata>
Created by potrace 1.13, written by Peter Selinger 2001-2015
</metadata>
<g transform="translate(0.000000,666.000000) scale(0.100000,-0.100000)"
fill="#000000" stroke="none">
<path d="M2705 5950 c-20 -6 -226 -206 -616 -597 -645 -647 -627 -626 -599
-715 20 -63 61 -103 123 -117 45 -11 57 -10 91 4 28 12 163 140 460 437 231
231 428 424 437 428 9 5 19 6 23 3 3 -3 6 -158 6 -343 l0 -337 -177 -169
c-255 -244 -269 -258 -394 -376 -63 -59 -148 -139 -189 -179 -236 -225 -447
-426 -511 -486 -78 -73 -92 -101 -87 -177 3 -50 10 -71 30 -99 40 -51 96 -77
169 -77 72 0 107 21 221 131 40 38 105 100 143 137 39 37 124 119 191 182 66
63 180 171 253 240 73 69 167 158 209 198 77 74 124 107 136 95 3 -4 6 -217 6
-475 0 -525 9 -467 -80 -538 -74 -59 -192 -157 -260 -215 -26 -22 -64 -53 -84
-70 -46 -36 -120 -97 -161 -134 -16 -14 -50 -41 -75 -60 -25 -19 -63 -50 -86
-70 -69 -61 -106 -91 -111 -91 -3 0 -24 -17 -47 -38 -23 -20 -64 -55 -91 -77
-27 -22 -67 -56 -89 -76 -23 -19 -61 -50 -86 -69 -25 -19 -52 -41 -62 -50 -9
-10 -38 -35 -64 -56 -27 -21 -54 -43 -61 -49 -6 -5 -29 -23 -50 -40 -62 -50
-135 -116 -158 -144 -48 -58 -40 -152 20 -213 59 -62 179 -87 265 -56 39 15
130 77 130 90 0 4 5 8 11 8 7 0 33 19 58 42 26 24 66 59 91 78 49 39 181 149
220 183 14 13 36 30 50 39 14 9 42 33 63 52 21 20 42 36 46 36 5 0 11 7 15 15
3 8 10 15 15 15 5 0 27 16 48 36 21 19 65 56 98 81 33 26 67 54 77 63 14 15
85 74 126 105 7 6 21 17 30 26 9 8 40 33 67 55 28 21 52 42 53 47 7 15 64 39
73 30 5 -5 10 -301 12 -658 3 -358 8 -670 11 -695 9 -58 34 -107 66 -127 32
-21 137 -23 174 -4 32 18 64 66 73 112 4 19 9 335 12 704 l6 670 23 -3 c13 -1
52 -27 85 -57 34 -30 68 -55 75 -55 6 0 12 -7 12 -15 0 -8 7 -15 15 -15 7 0
18 -6 22 -12 4 -7 33 -33 63 -58 30 -24 59 -50 63 -57 4 -7 12 -13 16 -13 9 0
43 -27 116 -92 23 -21 45 -38 49 -38 4 0 20 -14 36 -30 16 -17 34 -30 40 -30
5 0 10 -3 10 -8 0 -4 23 -25 51 -47 28 -22 65 -52 83 -67 121 -102 270 -226
318 -263 21 -16 38 -33 38 -37 0 -4 7 -8 15 -8 8 0 15 -4 15 -8 0 -12 92 -77
120 -86 81 -24 96 -25 163 -9 120 29 183 118 158 224 -9 38 -23 55 -106 128
-84 73 -98 85 -150 126 -55 44 -77 62 -103 86 -9 8 -37 31 -62 49 -45 35 -97
79 -132 112 -10 10 -20 18 -23 18 -3 0 -13 8 -23 17 -11 10 -50 43 -88 75
-126 103 -259 213 -270 223 -7 5 -29 24 -50 40 -21 17 -57 47 -80 68 -23 20
-46 37 -52 37 -6 0 -12 4 -14 9 -1 4 -52 50 -113 100 -60 51 -143 120 -183
154 -41 34 -87 70 -103 81 -16 10 -31 28 -34 40 -3 11 -4 230 -3 486 l3 465
25 -3 c14 -1 27 -7 28 -12 4 -12 27 -34 162 -160 57 -52 171 -160 254 -241 83
-80 168 -161 188 -180 68 -64 310 -294 342 -325 63 -61 100 -77 175 -72 55 3
75 9 104 31 64 48 82 84 81 155 -1 40 -8 71 -19 88 -13 21 -195 204 -201 204
-2 0 -101 94 -242 229 -42 40 -146 139 -231 220 -85 80 -182 173 -217 206 -34
33 -122 116 -195 185 -73 69 -161 152 -196 185 l-63 61 0 307 c0 268 2 307 15
307 9 0 189 -173 401 -385 212 -212 389 -385 394 -385 5 0 13 -7 17 -15 5 -8
23 -17 39 -18 17 -2 36 -7 43 -11 19 -12 84 16 123 52 41 39 54 85 43 155 -7
39 -40 75 -564 600 -306 307 -575 574 -599 593 -34 28 -52 36 -95 39 -28 3
-65 0 -82 -5z"/>
</g>
</svg>
