<?xml version="1.0" standalone="no"?>
<!DOCTYPE svg PUBLIC "-//W3C//DTD SVG 20010904//EN"
 "http://www.w3.org/TR/2001/REC-SVG-20010904/DTD/svg10.dtd">
<svg version="1.0" xmlns="http://www.w3.org/2000/svg"
 width="546.000000pt" height="666.000000pt" viewBox="0 0 546.000000 666.000000"
 preserveAspectRatio="xMidYMid meet">
<metadata>
Created by potrace 1.13, written by Peter Selinger 2001-2015
</metadata>
<g transform="translate(0.000000,666.000000) scale(0.100000,-0.100000)"
fill="#000000" stroke="none">
<path d="M2755 5404 c-88 -19 -212 -77 -291 -137 -151 -114 -258 -311 -279
-510 l-7 -67 184 2 183 3 6 51 c14 115 93 223 205 279 53 27 68 30 154 30 82
0 103 -4 152 -27 79 -37 142 -98 181 -177 29 -60 32 -74 32 -161 0 -83 -3
-102 -27 -150 -43 -88 -90 -135 -176 -177 l-76 -38 -1413 -3 -1413 -2 0 -180
0 -180 1398 0 c1124 1 1412 3 1472 14 222 40 421 188 522 387 50 98 69 173 75
295 7 137 -14 240 -74 364 -39 78 -62 109 -132 180 -149 148 -287 209 -491
216 -80 3 -137 -1 -185 -12z"/>
<path d="M4419 4676 c-234 -49 -439 -217 -529 -432 -31 -74 -59 -195 -60 -256
l0 -28 179 0 179 0 7 49 c16 117 106 235 220 288 51 24 73 28 146 28 78 0 91
-3 161 -38 86 -42 133 -90 175 -177 24 -48 27 -68 28 -150 0 -85 -3 -101 -29
-155 -38 -76 -105 -143 -181 -181 l-60 -29 -2242 -3 -2243 -2 0 -180 0 -180
2230 0 c2500 0 2310 -6 2475 75 162 78 261 176 341 340 99 201 99 426 -1 630
-93 193 -228 309 -439 380 -98 33 -255 42 -357 21z"/>
<path d="M170 2680 l0 -180 1413 -2 1413 -3 76 -38 c86 -42 133 -89 176 -177
24 -48 27 -67 27 -150 0 -87 -3 -101 -32 -161 -120 -243 -443 -281 -616 -71
-40 47 -73 127 -79 188 l-4 39 -183 3 -183 2 7 -67 c41 -395 376 -682 770
-660 192 11 333 76 476 217 70 71 93 102 132 180 60 124 81 227 74 364 -6 122
-25 197 -75 295 -101 199 -300 347 -522 387 -60 11 -348 13 -1472 14 l-1398 0
0 -180z"/>
</g>
</svg>
